<svg width="33" height="32" viewBox="0 0 33 32" fill="none" xmlns="http://www.w3.org/2000/svg">
<path d="M14.3795 11.0992V13.3024H12.7415V15.9952H14.3795V24H17.7465V15.9952H20.0052C20.0052 15.9952 20.2181 14.704 20.3205 13.2912H17.7595V11.4512C17.7595 11.1744 18.1267 10.8048 18.4907 10.8048H20.3237V8H17.8293C14.2966 8 14.3795 10.696 14.3795 11.0992Z" fill="white"/>
<path d="M6.75 3.2C5.88805 3.2 5.0614 3.53714 4.4519 4.13726C3.84241 4.73737 3.5 5.55131 3.5 6.4V25.6C3.5 26.4487 3.84241 27.2626 4.4519 27.8627C5.0614 28.4629 5.88805 28.8 6.75 28.8H26.25C27.112 28.8 27.9386 28.4629 28.5481 27.8627C29.1576 27.2626 29.5 26.4487 29.5 25.6V6.4C29.5 5.55131 29.1576 4.73737 28.5481 4.13726C27.9386 3.53714 27.112 3.2 26.25 3.2H6.75ZM6.75 0H26.25C27.9739 0 29.6272 0.674284 30.8462 1.87452C32.0652 3.07475 32.75 4.70261 32.75 6.4V25.6C32.75 27.2974 32.0652 28.9252 30.8462 30.1255C29.6272 31.3257 27.9739 32 26.25 32H6.75C5.02609 32 3.37279 31.3257 2.15381 30.1255C0.93482 28.9252 0.25 27.2974 0.25 25.6V6.4C0.25 4.70261 0.93482 3.07475 2.15381 1.87452C3.37279 0.674284 5.02609 0 6.75 0V0Z" fill="white"/>
</svg>
