<svg width="33" height="32" viewBox="0 0 33 32" fill="none" xmlns="http://www.w3.org/2000/svg">
<path d="M16.25 0C11.8402 0 11.2856 0.02 9.55297 0.096C7.82031 0.176 6.64016 0.444 5.60625 0.84C4.52175 1.24164 3.53944 1.87165 2.72797 2.686C1.9014 3.48539 1.26162 4.45248 0.853125 5.52C0.450937 6.536 0.176719 7.7 0.0975 9.4C0.0203125 11.11 0 11.654 0 16.002C0 20.346 0.0203125 20.89 0.0975 22.596C0.17875 24.3 0.450937 25.462 0.853125 26.48C1.26953 27.532 1.82406 28.424 2.72797 29.314C3.62984 30.204 4.53578 30.752 5.60422 31.16C6.64016 31.556 7.81828 31.826 9.54891 31.904C11.2836 31.98 11.8361 32 16.25 32C20.6639 32 21.2144 31.98 22.9491 31.904C24.6777 31.824 25.8619 31.556 26.8958 31.16C27.9796 30.7582 28.9612 30.1282 29.772 29.314C30.6759 28.424 31.2305 27.532 31.6469 26.48C32.047 25.462 32.3212 24.3 32.4025 22.596C32.4797 20.89 32.5 20.346 32.5 16C32.5 11.654 32.4797 11.11 32.4025 9.402C32.3212 7.7 32.047 6.536 31.6469 5.52C31.2384 4.45245 30.5986 3.48535 29.772 2.686C28.9608 1.87135 27.9784 1.24129 26.8937 0.84C25.8578 0.444 24.6756 0.174 22.947 0.096C21.2123 0.02 20.6619 0 16.2459 0H16.252H16.25ZM14.7936 2.884H16.252C20.5908 2.884 21.1047 2.898 22.817 2.976C24.4014 3.046 25.2627 3.308 25.8355 3.526C26.5931 3.816 27.1355 4.164 27.7042 4.724C28.273 5.284 28.6244 5.816 28.9189 6.564C29.1423 7.126 29.4064 7.974 29.4775 9.534C29.5567 11.22 29.573 11.726 29.573 15.996C29.573 20.266 29.5567 20.774 29.4775 22.46C29.4064 24.02 29.1403 24.866 28.9189 25.43C28.6584 26.1247 28.2426 26.7529 27.7022 27.268C27.1334 27.828 26.5931 28.174 25.8334 28.464C25.2647 28.684 24.4034 28.944 22.817 29.016C21.1047 29.092 20.5908 29.11 16.252 29.11C11.9133 29.11 11.3973 29.092 9.685 29.016C8.10063 28.944 7.24141 28.684 6.66859 28.464C5.96273 28.2078 5.32416 27.7992 4.79984 27.268C4.25902 26.7521 3.84256 26.1233 3.58109 25.428C3.35969 24.866 3.09359 24.018 3.0225 22.458C2.94531 20.772 2.92906 20.266 2.92906 15.992C2.92906 11.72 2.94531 11.216 3.0225 9.53C3.09563 7.97 3.35969 7.122 3.58313 6.558C3.87766 5.812 4.23109 5.278 4.79984 4.718C5.36859 4.158 5.90891 3.812 6.66859 3.522C7.24141 3.302 8.10063 3.042 9.685 2.97C11.1841 2.902 11.765 2.882 14.7936 2.88V2.884V2.884ZM24.9255 5.54C24.6694 5.54 24.4158 5.58966 24.1792 5.68615C23.9427 5.78264 23.7277 5.92407 23.5466 6.10236C23.3655 6.28064 23.2219 6.4923 23.1239 6.72525C23.0259 6.95819 22.9755 7.20786 22.9755 7.46C22.9755 7.71214 23.0259 7.96181 23.1239 8.19475C23.2219 8.4277 23.3655 8.63936 23.5466 8.81765C23.7277 8.99593 23.9427 9.13736 24.1792 9.23385C24.4158 9.33034 24.6694 9.38 24.9255 9.38C25.4426 9.38 25.9386 9.17771 26.3043 8.81765C26.67 8.45758 26.8755 7.96922 26.8755 7.46C26.8755 6.95078 26.67 6.46242 26.3043 6.10236C25.9386 5.74229 25.4426 5.54 24.9255 5.54V5.54ZM16.252 7.784C15.1451 7.767 14.0459 7.96697 13.0182 8.37228C11.9906 8.77759 11.0551 9.38014 10.2662 10.1448C9.47738 10.9096 8.8509 11.8211 8.42327 12.8265C7.99565 13.8319 7.77542 14.911 7.77542 16.001C7.77542 17.091 7.99565 18.1701 8.42327 19.1755C8.8509 20.1809 9.47738 21.0924 10.2662 21.8572C11.0551 22.6219 11.9906 23.2244 13.0182 23.6297C14.0459 24.035 15.1451 24.235 16.252 24.218C18.4428 24.1843 20.5323 23.3038 22.0695 21.7665C23.6067 20.2292 24.4682 18.1583 24.4682 16.001C24.4682 13.8437 23.6067 11.7728 22.0695 10.2355C20.5323 8.69817 18.4428 7.81765 16.252 7.784V7.784ZM16.252 10.666C17.6888 10.666 19.0667 11.228 20.0827 12.2283C21.0986 13.2286 21.6694 14.5853 21.6694 16C21.6694 17.4147 21.0986 18.7714 20.0827 19.7717C19.0667 20.772 17.6888 21.334 16.252 21.334C14.8153 21.334 13.4373 20.772 12.4214 19.7717C11.4054 18.7714 10.8347 17.4147 10.8347 16C10.8347 14.5853 11.4054 13.2286 12.4214 12.2283C13.4373 11.228 14.8153 10.666 16.252 10.666V10.666Z" fill="white"/>
</svg>
