<svg width="28" height="27" viewBox="0 0 28 27" fill="none" xmlns="http://www.w3.org/2000/svg">
<g clip-path="url(#clip0_443_3100)">
<path d="M21.4659 20.8951H18.3528V16.0225C18.3528 14.8617 18.3323 13.3646 16.7327 13.3646C15.1126 13.3646 14.8665 14.632 14.8665 15.9404V20.8951H11.7575V10.8709H14.7435V12.2408H14.7845C15.1987 11.4533 16.2159 10.6207 17.7294 10.6207C20.8835 10.6207 21.4659 12.6961 21.4659 15.3949V20.8951Z" fill="white"/>
<path d="M9.80107 20.8951H6.68389V10.8709H9.80107V20.8951Z" fill="white"/>
<path d="M8.24248 9.50508C7.2417 9.50508 6.43369 8.69707 6.43369 7.70039C6.43369 6.70371 7.2417 5.8957 8.24248 5.8957C9.23916 5.8957 10.0472 6.70371 10.0472 7.70039C10.0472 8.69297 9.23916 9.50508 8.24248 9.50508Z" fill="white"/>
<rect x="1.8208" y="1.25" width="24.5" height="24.5" rx="3.75" stroke="white" stroke-width="2.5"/>
</g>
<defs>
<clipPath id="clip0_443_3100">
<rect width="27" height="27" fill="white" transform="translate(0.570801)"/>
</clipPath>
</defs>
</svg>
