<svg width="213" height="68" viewBox="0 0 213 68" fill="none" xmlns="http://www.w3.org/2000/svg">
<g clip-path="url(#clip0_89_970)">
<path d="M99.6502 26.23C99.6302 14.38 105.42 5.00999 115.09 1.59999C130.05 -3.68001 147.91 4.05999 147.66 26.27C147.63 28.95 147.27 31.7 146.6 34.29C143.08 47.78 132.03 52.85 120.93 51.85C108.56 50.73 100.31 41.69 99.6502 29.21C99.6002 28.22 99.6502 27.22 99.6502 26.23ZM135.65 26.3C135.67 21.9 135.03 17.66 132.48 13.93C128.15 7.58999 119.67 7.36999 115.05 13.47C110.34 19.69 110.31 32.33 114.99 38.55C119.52 44.56 128.27 44.36 132.49 38.13C134.91 34.57 135.6 30.51 135.65 26.3Z" fill="white"/>
<path d="M51.9099 0.999985C56.2099 0.999985 60.2499 0.939985 64.2899 1.05999C64.8899 1.07999 65.6899 1.80999 66.0199 2.40999C71.6399 12.9 77.1999 23.42 82.7599 33.94C82.9999 34.4 83.2099 34.87 83.4199 35.3V1.19999H93.6799V51.02C89.9699 51.02 85.8599 51.09 82.1099 50.94C81.5799 50.92 80.9399 49.95 80.5999 49.29C74.5799 37.89 68.5999 26.46 62.5999 15.05C62.5299 14.93 62.3099 14.89 62.1199 14.79V34.08C59.5499 29.39 57.5099 25.78 55.0399 21.32C52.5399 17.42 51.7899 13.44 51.8699 8.78999C51.9099 6.03999 51.9099 3.77999 51.9099 0.999985Z" fill="white"/>
<path d="M20.79 0.989981C24.79 0.989981 28.89 0.889981 32.67 1.06998C33.5 1.10998 34.63 1.93998 35.04 2.71998C40.63 13.13 45.17 21.81 50.68 32.26C50.83 32.54 51.34 33.56 51.92 34.74V22.65C51.92 22.65 55.66 29.35 55.81 29.62C57.13 31.96 58.29 33.92 59.79 36.69C61.23 39.25 61.9 41.99 62.13 44.88C62.16 48.16 62.13 50.97 62.13 50.97C62.13 50.97 55.22 51 51.41 50.97C50.7 50.93 49.8 49.94 49.39 49.18C43.39 37.87 37.45 26.52 31.49 15.19C31.42 15.05 31.25 14.96 31.05 14.77V50.85H20.79V0.989981Z" fill="white"/>
<path d="M211.98 51.0699H201.6C201.02 51.0699 200.1 50.0499 199.87 49.3899C198.81 46.3199 197.84 43.2199 197.02 40.0899C196.65 38.6699 195.98 38.2399 194.58 38.2699C191.24 38.3499 187.89 38.2399 184.55 38.3199C183.07 38.3499 182.34 37.9799 181.94 36.3699C180.53 30.5899 178.88 24.8799 177.41 19.1099C177.18 18.1999 177.23 17.1099 177.49 16.2099C178.78 11.6999 180.25 7.46994 181.49 2.94994C181.89 1.47994 182.63 1.18994 183.99 1.18994C187.74 1.19994 191.12 1.19994 195.1 1.19994C195.89 1.19994 197.15 1.19994 197.6 2.93994C202.66 18.8299 207.36 34.3499 212.31 50.2699C212.41 50.5299 212.51 51.0699 211.98 51.0699ZM194.7 29.6299C192.84 23.0299 191.03 16.6199 189.09 9.76994C187.27 16.7199 185.6 23.1299 183.91 29.6299H194.7Z" fill="white"/>
<path d="M175.19 23.96C177.05 30.76 178.61 36.42 180.26 42.4C180.37 42.78 180.37 43.19 180.27 43.57L179.56 46.3C179.39 46.97 179.21 47.64 179.04 48.3C178.87 48.93 178.79 49.64 178.33 50.13C177.75 50.76 176.88 51.1 176.03 51.07C174.95 51.03 173.86 51.07 172.78 51.08C171.33 51.09 169.88 51.09 168.44 51.06C167.16 51.04 165.65 51.23 164.54 50.46C163.55 49.76 163.33 48.68 162.98 47.6C162.55 46.29 162.12 44.98 161.7 43.66C160.85 41.04 160 38.43 159.15 35.81C157.46 30.59 155.78 25.36 154.1 20.13C152.4 14.85 150.71 9.57004 149.02 4.29004C148.69 3.25004 148.35 2.21004 148.02 1.17004H158.37L170.67 39.31C170.66 39.32 173.57 29.49 175.19 23.96Z" fill="white"/>
<path d="M10.93 1.14001H0V50.95H10.93V1.14001Z" fill="white"/>
<path d="M85.7501 67.34C84.7001 67.34 83.8301 66.99 83.1501 66.3C82.4701 65.61 82.1201 64.75 82.1201 63.74C82.1201 62.73 82.4601 61.88 83.1501 61.18C83.8401 60.48 84.7001 60.14 85.7501 60.14C86.3901 60.14 86.9701 60.29 87.5101 60.59C88.0401 60.89 88.4501 61.3 88.7501 61.81L88.2801 62.08C88.0501 61.65 87.7001 61.3 87.2501 61.04C86.8001 60.78 86.3001 60.65 85.7501 60.65C84.8501 60.65 84.1001 60.95 83.5201 61.54C82.9401 62.14 82.6501 62.87 82.6501 63.74C82.6501 64.61 82.9401 65.34 83.5201 65.94C84.1001 66.53 84.8401 66.83 85.7501 66.83C86.3001 66.83 86.8001 66.7 87.2601 66.43C87.7201 66.16 88.0601 65.81 88.3001 65.36L88.7701 65.63C88.4801 66.15 88.0701 66.56 87.5301 66.87C86.9801 67.19 86.3901 67.34 85.7501 67.34Z" fill="white"/>
<path d="M96.7599 66.29C96.0599 66.99 95.2099 67.34 94.2099 67.34C93.1999 67.34 92.3599 66.99 91.6599 66.29C90.9599 65.59 90.6099 64.74 90.6099 63.74C90.6099 62.74 90.9599 61.89 91.6599 61.19C92.3599 60.49 93.2099 60.14 94.2099 60.14C95.2099 60.14 96.0599 60.49 96.7599 61.19C97.4599 61.89 97.8099 62.74 97.8099 63.74C97.8099 64.74 97.4599 65.59 96.7599 66.29ZM92.0299 65.93C92.6299 66.53 93.3499 66.83 94.2099 66.83C95.0699 66.83 95.7899 66.53 96.3899 65.93C96.9899 65.33 97.2799 64.6 97.2799 63.74C97.2799 62.88 96.9799 62.15 96.3899 61.55C95.7899 60.95 95.0699 60.65 94.2099 60.65C93.3499 60.65 92.6299 60.95 92.0299 61.55C91.4299 62.15 91.1399 62.88 91.1399 63.74C91.1299 64.6 91.4299 65.33 92.0299 65.93Z" fill="white"/>
<path d="M104.73 60.25H105.26V67.23H104.79L100.67 61.23V67.23H100.14V60.25H100.58L104.73 66.28V60.25Z" fill="white"/>
<path d="M110.03 67.34C109.38 67.34 108.84 67.19 108.39 66.9C107.94 66.6 107.64 66.2 107.48 65.7L107.94 65.43C108.07 65.86 108.31 66.2 108.66 66.46C109.02 66.71 109.47 66.84 110.03 66.84C110.59 66.84 111.03 66.71 111.33 66.45C111.63 66.19 111.79 65.85 111.79 65.44C111.79 65.05 111.64 64.76 111.35 64.55C111.06 64.34 110.6 64.14 109.98 63.94C109.75 63.86 109.59 63.8 109.49 63.76C109.39 63.72 109.24 63.67 109.04 63.6C108.85 63.53 108.7 63.47 108.61 63.4C108.52 63.34 108.41 63.26 108.28 63.16C108.15 63.06 108.06 62.96 108 62.86C107.94 62.76 107.89 62.63 107.84 62.49C107.79 62.35 107.77 62.19 107.77 62.02C107.77 61.45 107.97 61 108.37 60.66C108.77 60.32 109.28 60.15 109.88 60.15C110.43 60.15 110.89 60.29 111.28 60.56C111.67 60.83 111.95 61.18 112.13 61.62L111.68 61.87C111.35 61.07 110.75 60.66 109.88 60.66C109.4 60.66 109.02 60.79 108.73 61.04C108.44 61.29 108.3 61.61 108.3 62.01C108.3 62.39 108.43 62.67 108.7 62.86C108.96 63.05 109.4 63.24 110.01 63.44C110.39 63.58 110.69 63.7 110.91 63.78C111.13 63.86 111.36 63.98 111.61 64.14C111.86 64.3 112.04 64.48 112.15 64.7C112.26 64.92 112.32 65.17 112.32 65.46C112.32 66.04 112.11 66.5 111.69 66.85C111.27 67.17 110.72 67.34 110.03 67.34Z" fill="white"/>
<path d="M118.66 60.25V60.75H116.46V67.23H115.92V60.75H113.73V60.25H118.66Z" fill="white"/>
<path d="M125.16 67.23L123.48 64.37H121.28V67.23H120.75V60.25H123.5C124.06 60.25 124.55 60.45 124.96 60.86C125.36 61.26 125.57 61.75 125.57 62.32C125.57 62.79 125.43 63.21 125.14 63.58C124.85 63.95 124.48 64.19 124.04 64.31L125.78 67.24H125.16V67.23ZM121.28 60.75V63.87H123.5C123.93 63.87 124.29 63.72 124.59 63.42C124.89 63.12 125.04 62.75 125.04 62.32C125.04 61.89 124.89 61.52 124.59 61.21C124.29 60.9 123.93 60.75 123.5 60.75H121.28Z" fill="white"/>
<path d="M132.13 66.68C131.66 67.13 131.04 67.35 130.27 67.35C129.5 67.35 128.88 67.13 128.42 66.68C127.95 66.23 127.72 65.64 127.72 64.9V60.25H128.25V64.9C128.25 65.48 128.43 65.95 128.78 66.31C129.13 66.66 129.63 66.84 130.28 66.84C130.93 66.84 131.43 66.66 131.78 66.31C132.13 65.96 132.31 65.49 132.31 64.9V60.25H132.84V64.9C132.83 65.64 132.6 66.23 132.13 66.68Z" fill="white"/>
<path d="M138.7 67.34C137.65 67.34 136.78 66.99 136.1 66.3C135.42 65.61 135.07 64.75 135.07 63.74C135.07 62.73 135.41 61.88 136.1 61.18C136.79 60.48 137.65 60.14 138.7 60.14C139.34 60.14 139.92 60.29 140.46 60.59C140.99 60.89 141.4 61.3 141.7 61.81L141.23 62.08C141 61.65 140.65 61.3 140.2 61.04C139.75 60.78 139.25 60.65 138.7 60.65C137.8 60.65 137.05 60.95 136.47 61.54C135.89 62.14 135.6 62.87 135.6 63.74C135.6 64.61 135.89 65.34 136.47 65.94C137.05 66.53 137.8 66.83 138.7 66.83C139.25 66.83 139.75 66.7 140.21 66.43C140.67 66.16 141.01 65.81 141.25 65.36L141.72 65.63C141.43 66.15 141.02 66.56 140.48 66.87C139.94 67.18 139.34 67.34 138.7 67.34Z" fill="white"/>
<path d="M148.14 60.25V60.75H145.95V67.23H145.41V60.75H143.22V60.25H148.14Z" fill="white"/>
<path d="M150.77 60.25H150.24V67.23H150.77V60.25Z" fill="white"/>
<path d="M159.25 66.29C158.55 66.99 157.7 67.34 156.7 67.34C155.69 67.34 154.84 66.99 154.15 66.29C153.45 65.59 153.1 64.74 153.1 63.74C153.1 62.74 153.45 61.89 154.15 61.19C154.85 60.49 155.7 60.14 156.7 60.14C157.7 60.14 158.55 60.49 159.25 61.19C159.95 61.89 160.3 62.74 160.3 63.74C160.3 64.74 159.95 65.59 159.25 66.29ZM154.52 65.93C155.12 66.53 155.84 66.83 156.7 66.83C157.56 66.83 158.28 66.53 158.88 65.93C159.48 65.33 159.77 64.6 159.77 63.74C159.77 62.88 159.47 62.15 158.88 61.55C158.28 60.95 157.56 60.65 156.7 60.65C155.84 60.65 155.12 60.95 154.52 61.55C153.92 62.15 153.63 62.88 153.63 63.74C153.63 64.6 153.93 65.33 154.52 65.93Z" fill="white"/>
<path d="M167.23 60.25H167.75V67.23H167.29L163.17 61.23V67.23H162.64V60.25H163.08L167.23 66.28V60.25Z" fill="white"/>
<path d="M180.79 63.98V64.25C180.79 65.12 180.48 65.86 179.86 66.45C179.24 67.05 178.43 67.34 177.42 67.34C176.36 67.34 175.48 66.99 174.79 66.3C174.1 65.61 173.75 64.75 173.75 63.74C173.75 62.73 174.09 61.88 174.78 61.18C175.47 60.48 176.33 60.14 177.38 60.14C178.02 60.14 178.61 60.29 179.14 60.6C179.67 60.91 180.09 61.31 180.38 61.83L179.91 62.11C179.68 61.67 179.33 61.32 178.88 61.05C178.42 60.78 177.92 60.65 177.38 60.65C176.48 60.65 175.73 60.95 175.15 61.54C174.57 62.14 174.28 62.87 174.28 63.74C174.28 64.61 174.57 65.34 175.16 65.94C175.75 66.53 176.5 66.83 177.43 66.83C178.25 66.83 178.91 66.61 179.41 66.16C179.92 65.71 180.2 65.15 180.26 64.47H177.3V63.97H180.79V63.98Z" fill="white"/>
<path d="M187.52 67.23L185.84 64.37H183.64V67.23H183.11V60.25H185.86C186.42 60.25 186.91 60.45 187.32 60.86C187.72 61.26 187.93 61.75 187.93 62.32C187.93 62.79 187.79 63.21 187.5 63.58C187.21 63.95 186.84 64.19 186.4 64.31L188.14 67.24H187.52V67.23ZM183.64 60.75V63.87H185.86C186.29 63.87 186.65 63.72 186.95 63.42C187.25 63.12 187.4 62.75 187.4 62.32C187.4 61.89 187.25 61.52 186.95 61.21C186.65 60.9 186.29 60.75 185.86 60.75H183.64Z" fill="white"/>
<path d="M195.98 66.29C195.28 66.99 194.43 67.34 193.43 67.34C192.42 67.34 191.57 66.99 190.88 66.29C190.18 65.59 189.83 64.74 189.83 63.74C189.83 62.74 190.18 61.89 190.88 61.19C191.58 60.49 192.43 60.14 193.43 60.14C194.43 60.14 195.28 60.49 195.98 61.19C196.68 61.89 197.03 62.74 197.03 63.74C197.03 64.74 196.68 65.59 195.98 66.29ZM191.25 65.93C191.85 66.53 192.57 66.83 193.43 66.83C194.29 66.83 195.01 66.53 195.61 65.93C196.21 65.33 196.5 64.6 196.5 63.74C196.5 62.88 196.2 62.15 195.61 61.55C195.01 60.95 194.29 60.65 193.43 60.65C192.57 60.65 191.85 60.95 191.25 61.55C190.65 62.15 190.36 62.88 190.36 63.74C190.36 64.6 190.66 65.33 191.25 65.93Z" fill="white"/>
<path d="M203.63 66.68C203.16 67.13 202.54 67.35 201.77 67.35C201 67.35 200.38 67.13 199.92 66.68C199.45 66.23 199.22 65.64 199.22 64.9V60.25H199.75V64.9C199.75 65.48 199.93 65.95 200.28 66.31C200.63 66.66 201.13 66.84 201.78 66.84C202.43 66.84 202.93 66.66 203.28 66.31C203.63 65.96 203.81 65.49 203.81 64.9V60.25H204.34V64.9C204.33 65.64 204.1 66.23 203.63 66.68Z" fill="white"/>
<path d="M209.34 60.25C209.96 60.25 210.48 60.46 210.9 60.87C211.31 61.28 211.52 61.8 211.52 62.42C211.52 63.04 211.31 63.55 210.9 63.96C210.49 64.37 209.97 64.57 209.34 64.57H207.49V67.23H206.96V60.25H209.34ZM209.34 64.07C209.82 64.07 210.21 63.91 210.52 63.6C210.83 63.29 210.98 62.89 210.98 62.41C210.98 61.92 210.82 61.53 210.52 61.21C210.21 60.9 209.82 60.74 209.34 60.74H207.49V64.06H209.34V64.07Z" fill="white"/>
</g>
<defs>
<clipPath id="clip0_89_970">
<rect width="212.39" height="67.34" fill="white"/>
</clipPath>
</defs>
</svg>
