<svg width="65" height="46" viewBox="0 0 65 46" fill="none" xmlns="http://www.w3.org/2000/svg">
<path fill-rule="evenodd" clip-rule="evenodd" d="M19.7002 1.75C16.9388 1.75 14.7002 3.98858 14.7002 6.75V15.0168H14.7005V23.2835C14.7005 26.0449 16.9391 28.2835 19.7005 28.2835H58.6051C61.3665 28.2835 63.605 26.0449 63.605 23.2835V15.0167H63.6047V6.75C63.6047 3.98858 61.3661 1.75 58.6047 1.75H19.7002Z" fill="#FFA72A"/>
<path d="M14.7002 15.0168H13.7002V16.0168H14.7002V15.0168ZM14.7005 15.0168H15.7005V14.0168H14.7005V15.0168ZM63.605 15.0167H64.605V14.0167H63.605V15.0167ZM63.6047 15.0167H62.6047V16.0167H63.6047V15.0167ZM15.7002 6.75C15.7002 4.54086 17.4911 2.75 19.7002 2.75V0.75C16.3865 0.75 13.7002 3.43629 13.7002 6.75H15.7002ZM15.7002 15.0168V6.75H13.7002V15.0168H15.7002ZM14.7005 14.0168H14.7002V16.0168H14.7005V14.0168ZM13.7005 15.0168V23.2835H15.7005V15.0168H13.7005ZM13.7005 23.2835C13.7005 26.5972 16.3868 29.2835 19.7005 29.2835V27.2835C17.4914 27.2835 15.7005 25.4926 15.7005 23.2835H13.7005ZM19.7005 29.2835H58.6051V27.2835H19.7005V29.2835ZM58.6051 29.2835C61.9188 29.2835 64.605 26.5972 64.605 23.2835H62.605C62.605 25.4926 60.8142 27.2835 58.6051 27.2835V29.2835ZM64.605 23.2835V15.0167H62.605V23.2835H64.605ZM63.605 14.0167H63.6047V16.0167H63.605V14.0167ZM62.6047 6.75V15.0167H64.6047V6.75H62.6047ZM58.6047 2.75C60.8139 2.75 62.6047 4.54086 62.6047 6.75H64.6047C64.6047 3.43629 61.9184 0.75 58.6047 0.75V2.75ZM19.7002 2.75H58.6047V0.75H19.7002V2.75Z" fill="#2B353B"/>
<path fill-rule="evenodd" clip-rule="evenodd" d="M12.4463 10.4854C9.68487 10.4854 7.44629 12.7239 7.44629 15.4854V23.0438H7.44654V30.6021C7.44654 33.3635 9.68512 35.6021 12.4465 35.6021H51.3511C54.1125 35.6021 56.3511 33.3635 56.3511 30.6021V23.0437H56.3508V15.4854C56.3508 12.7239 54.1122 10.4854 51.3508 10.4854H12.4463Z" fill="#FFA72A"/>
<path d="M7.44629 23.0438H6.44629V24.0438H7.44629V23.0438ZM7.44654 23.0438H8.44654V22.0438H7.44654V23.0438ZM56.3511 23.0437H57.3511V22.0437H56.3511V23.0437ZM56.3508 23.0437H55.3508V24.0437H56.3508V23.0437ZM8.44629 15.4854C8.44629 13.2762 10.2372 11.4854 12.4463 11.4854V9.48535C9.13258 9.48535 6.44629 12.1716 6.44629 15.4854H8.44629ZM8.44629 23.0438V15.4854H6.44629V23.0438H8.44629ZM7.44654 22.0438H7.44629V24.0438H7.44654V22.0438ZM6.44654 23.0438V30.6021H8.44654V23.0438H6.44654ZM6.44654 30.6021C6.44654 33.9158 9.13283 36.6021 12.4465 36.6021V34.6021C10.2374 34.6021 8.44654 32.8113 8.44654 30.6021H6.44654ZM12.4465 36.6021H51.3511V34.6021H12.4465V36.6021ZM51.3511 36.6021C54.6648 36.6021 57.3511 33.9158 57.3511 30.6021H55.3511C55.3511 32.8113 53.5602 34.6021 51.3511 34.6021V36.6021ZM57.3511 30.6021V23.0437H55.3511V30.6021H57.3511ZM56.3511 22.0437H56.3508V24.0437H56.3511V22.0437ZM55.3508 15.4854V23.0437H57.3508V15.4854H55.3508ZM51.3508 11.4854C53.5599 11.4854 55.3508 13.2762 55.3508 15.4854H57.3508C57.3508 12.1716 54.6645 9.48535 51.3508 9.48535V11.4854ZM12.4463 11.4854H51.3508V9.48535H12.4463V11.4854Z" fill="#2B353B"/>
<path fill-rule="evenodd" clip-rule="evenodd" d="M6.5957 19.2202C3.83428 19.2202 1.5957 21.4588 1.5957 24.2202V31.7787H1.59589V39.337C1.59589 42.0984 3.83446 44.337 6.59589 44.337H45.5004C48.2618 44.337 50.5004 42.0984 50.5004 39.337V31.7786H50.5002V24.2202C50.5002 21.4588 48.2616 19.2202 45.5002 19.2202H6.5957Z" fill="#FFA72A"/>
<path d="M1.5957 31.7787H0.595703V32.7787H1.5957V31.7787ZM1.59589 31.7787H2.59589V30.7787H1.59589V31.7787ZM50.5004 31.7786H51.5004V30.7786H50.5004V31.7786ZM50.5002 31.7786H49.5002V32.7786H50.5002V31.7786ZM2.5957 24.2202C2.5957 22.0111 4.38656 20.2202 6.5957 20.2202V18.2202C3.28199 18.2202 0.595703 20.9065 0.595703 24.2202H2.5957ZM2.5957 31.7787V24.2202H0.595703V31.7787H2.5957ZM1.59589 30.7787H1.5957V32.7787H1.59589V30.7787ZM0.595885 31.7787V39.337H2.59589V31.7787H0.595885ZM0.595885 39.337C0.595885 42.6507 3.28218 45.337 6.59589 45.337V43.337C4.38675 43.337 2.59589 41.5462 2.59589 39.337H0.595885ZM6.59589 45.337H45.5004V43.337H6.59589V45.337ZM45.5004 45.337C48.8141 45.337 51.5004 42.6507 51.5004 39.337H49.5004C49.5004 41.5462 47.7095 43.337 45.5004 43.337V45.337ZM51.5004 39.337V31.7786H49.5004V39.337H51.5004ZM50.5004 30.7786H50.5002V32.7786H50.5004V30.7786ZM49.5002 24.2202V31.7786H51.5002V24.2202H49.5002ZM45.5002 20.2202C47.7094 20.2202 49.5002 22.0111 49.5002 24.2202H51.5002C51.5002 20.9065 48.8139 18.2202 45.5002 18.2202V20.2202ZM6.5957 20.2202H45.5002V18.2202H6.5957V20.2202Z" fill="#2B353B"/>
</svg>
